Coordinates
version=1
nRows=12
nColumns=24
inDegrees=yes

Units are S.I. units (second, meters, Newtons, ...)
Angles are in degrees.

endheader
time	pelvis_tilt	pelvis_list	pelvis_rotation	pelvis_tx	pelvis_ty	pelvis_tz	hip_flexion_r	hip_adduction_r	hip_rotation_r	knee_angle_r	ankle_angle_r	subtalar_angle_r	mtp_angle_r	hip_flexion_l	hip_adduction_l	hip_rotation_l	knee_angle_l	ankle_angle_l	subtalar_angle_l	mtp_angle_l	lumbar_extension	lumbar_bending	lumbar_rotation
      4.83500000	    -15.55047700	     -9.91764298	      6.13684877	      0.70624107	     -0.03335393	     -0.03425008	     35.32507993	      7.96158935	    -10.31852205	    -20.68718178	     -6.96371735	     -1.09040201	      9.68446679	     14.92578318	    -17.08898020	    -10.39474371	    -54.79263211	    -34.70209708	     17.79392595	     28.06944260	     15.27231949	     10.24576849	     -9.32317233
      4.84000000	    -15.42694228	    -10.04599345	      6.07325602	      0.71235849	     -0.03227314	     -0.03381166	     34.63756893	      8.27739548	    -10.22242549	    -20.33603442	     -6.69305109	     -1.03602347	      9.67956799	     15.74516199	    -17.28175922	    -10.10748705	    -56.09352984	    -33.92669594	     16.40769379	     27.84732748	     15.15936801	     10.39118737	     -9.16016697
      4.84500000	    -15.34385804	    -10.01847028	      6.09759148	      0.71827588	     -0.03110226	     -0.03354672	     33.98990760	      8.37651349	    -10.13655264	    -20.01016958	     -6.38930114	     -0.93714264	      9.61127111	     16.63416099	    -17.20496966	     -9.69315784	    -57.34717910	    -33.01096176	     15.10086796	     27.20102048	     15.06385698	     10.34580705	     -9.02049765
      4.85000000	    -15.21059910	    -10.08826771	      6.03422433	      0.72436773	     -0.02989957	     -0.03311316	     33.25423181	      8.64404604	     -9.97939880	    -19.60235511	     -6.16904388	     -0.89967195	      9.57517002	     17.41387345	    -17.30236570	     -9.41619481	    -58.47436025	    -32.19947089	     13.96084772	     27.03039102	     14.94073081	     10.42624829	     -8.83450726
      4.85500000	    -15.09085000	    -10.01288114	      6.02178909	      0.73030995	     -0.02861516	     -0.03276828	     32.53521873	      8.73306591	     -9.83128308	    -19.23271285	     -5.90732760	     -0.83594562	      9.46023023	     18.20057853	    -17.17272224	     -9.07945484	    -59.53826418	    -31.26812467	     12.98348884	     26.47400435	     14.80572067	     10.33767275	     -8.64213577
      4.86000000	    -14.96084741	    -10.01019032	      5.95285217	      0.73636535	     -0.02732999	     -0.03234339	     31.77604191	      8.92977626	     -9.62658332	    -18.79318393	     -5.72252647	     -0.78317219	      9.40424883	     18.94151037	    -17.15926268	     -8.81535383	    -60.48210608	    -30.50000383	     12.14245389	     26.37487057	     14.68102179	     10.34073822	     -8.42772029
      4.86500000	    -14.82693727	     -9.92930676	      5.89496882	      0.74237177	     -0.02599659	     -0.03192615	     31.00545693	      9.04326041	     -9.40912007	    -18.35952714	     -5.53216240	     -0.74351073	      9.33095561	     19.64845679	    -17.03466809	     -8.55624838	    -61.33221560	    -29.72816594	     11.43362688	     26.22393718	     14.54148945	     10.25646263	     -8.21413890
      4.87000000	    -14.68034106	     -9.81473588	      5.80928259	      0.74827708	     -0.02464668	     -0.03148554	     30.23076059	      9.13100957	     -9.18078804	    -17.94590391	     -5.35326916	     -0.66909779	      9.22011240	     20.31696722	    -16.87329076	     -8.32947207	    -62.11216119	    -28.93679742	     10.95395354	     26.05213996	     14.36322655	     10.14690522	     -7.95433232
      4.87500000	    -14.58951106	     -9.68356893	      5.68939076	      0.75427576	     -0.02336985	     -0.03099366	     29.49401042	      9.20554187	     -8.91520369	    -17.50770490	     -5.16737634	     -0.55272477	      9.20429800	     20.99570902	    -16.69572698	     -8.13545013	    -62.76704093	    -28.24179948	     10.65235095	     26.23220781	     14.26423759	     10.01798169	     -7.71754765
      4.88000000	    -14.40689379	     -9.53175517	      5.59078403	      0.76030249	     -0.02193443	     -0.03054173	     28.62660693	      9.27047743	     -8.63249835	    -17.01360694	     -5.02955917	     -0.52955939	      9.07843713	     21.54996745	    -16.48987555	     -7.96509556	    -63.33676202	    -27.55226631	     10.40642278	     26.21954610	     14.06952931	      9.87448550	     -7.42867195
      4.88500000	    -14.35568675	     -9.37637201	      5.45894900	      0.76619723	     -0.02070741	     -0.03006343	     27.93634543	      9.30193355	     -8.43286858	    -16.57200971	     -4.89573417	     -0.40060699	      9.07911421	     22.24708625	    -16.26039028	     -7.79452187	    -63.84502995	    -26.94162609	     10.24459085	     26.48833324	     13.99803302	      9.71992514	     -7.13314550
      4.89000000	    -14.20621105	     -9.13992432	      5.29587183	      0.77218683	     -0.01932999	     -0.02950407	     27.09476064	      9.29556190	     -8.06198604	    -16.08369915	     -4.74961076	     -0.32533911	      9.01535088	     22.74432101	    -15.97234886	     -7.69499134	    -64.20889665	    -26.29319611	     10.43513850	     26.82268102	     13.82391021	      9.49407810	     -6.82126170
